<?xml version="1.0" encoding="UTF-8"?>
<svg xmlns="http://www.w3.org/2000/svg" width="420" height="88" viewBox="0 0 420 88" role="img" aria-labelledby="title desc">
  <title id="title">SkillSwap Connect wordmark</title>
  <desc id="desc">Logo text with gradient icon and a small byline credit.</desc>
  <defs>
    <linearGradient id="g" x1="0" y1="0" x2="1" y2="1">
      <stop offset="0%" stop-color="#F97316"/>
      <stop offset="100%" stop-color="#FDBA74"/>
    </linearGradient>
  </defs>
  <rect width="100%" height="100%" fill="none"/>
  <!-- Icon -->
  <g transform="translate(8,10)">
    <circle cx="28" cy="28" r="28" fill="rgba(253,186,116,0.18)"/>
    <path d="M20 22c0-5 4-9 9-9h7c4 0 7 3 7 7s-3 7-7 7h-4" fill="none" stroke="url(#g)" stroke-width="5" stroke-linecap="round"/>
    <polygon points="39,34 33,29 45,29" fill="url(#g)"/>
    <path d="M36 42c0 5-4 9-9 9h-7c-4 0-7-3-7-7s3-7 7-7h7" fill="none" stroke="url(#g)" stroke-width="5" stroke-linecap="round"/>
    <polygon points="29,36 35,41 23,41" fill="url(#g)"/>
  </g>
  <!-- Wordmark -->
  <g font-family="Segoe UI, Arial, sans-serif" font-weight="800">
    <text x="76" y="42" font-size="30" fill="url(#g)">SkillSwap</text>
    <text x="210" y="42" font-size="30" fill="#111827">Connect</text>
  </g>
  <g font-family="Segoe UI, Arial, sans-serif" font-size="12" fill="#6B7280">
    <text x="76" y="64">by Leslie Fernando</text>
  </g>
</svg>
