<?xml version="1.0" encoding="UTF-8"?>
<svg width="128" height="128" viewBox="0 0 128 128" xmlns="http://www.w3.org/2000/svg" role="img" aria-labelledby="title desc">
  <title id="title">SkillSwap Connect icon</title>
  <desc id="desc">Two interlocking swap arrows forming an S shape in a warm orange gradient.</desc>
  <defs>
    <linearGradient id="g" x1="0" y1="0" x2="1" y2="1">
      <stop offset="0%" stop-color="#F97316"/>
      <stop offset="100%" stop-color="#FDBA74"/>
    </linearGradient>
    <filter id="shadow" x="-20%" y="-20%" width="140%" height="140%">
      <feDropShadow dx="0" dy="4" stdDeviation="6" flood-color="#000" flood-opacity="0.15"/>
    </filter>
  </defs>
  <g filter="url(#shadow)">
    <path d="M24 44c0-12 10-22 22-22h18c10 0 18 8 18 18s-8 18-18 18H62" fill="none" stroke="url(#g)" stroke-width="10" stroke-linecap="round"/>
    <polygon points="62,66 50,56 74,56" fill="url(#g)"/>
    <path d="M104 84c0 12-10 22-22 22H64c-10 0-18-8-18-18s8-18 18-18h20" fill="none" stroke="url(#g)" stroke-width="10" stroke-linecap="round"/>
    <polygon points="84,70 96,80 72,80" fill="url(#g)"/>
  </g>
</svg>
